# xmcd
#
# Track frame offsets:
#	150
#	18569
#	38158
#	55406
#	75898
#	92632
#	115013
#	133635
#	159127
#	176881
#	193048
#
# Disc length: 2791 seconds
#
# Revision: 1
# Processed by: cddbd v1.5.2PL0 Copyright (c) Steve Scherf et al.
# Submitted via: audiograbber 1.83.01
#
DISCID=820ae50b
DTITLE=John Kelly - The Stage
DYEAR=2008
DGENRE=Country
TTITLE0=In Your Heart
TTITLE1=I Believe
TTITLE2=Dreams
TTITLE3=Still
TTITLE4=Lightning
TTITLE5=Such A Friend
TTITLE6=Jake's Song
TTITLE7=The Stage
TTITLE8=My Guitar Playin' Friend
TTITLE9=Together In The End
TTITLE10=Country Livin'
EXTD=
EXTT0=
EXTT1=
EXTT2=
EXTT3=
EXTT4=
EXTT5=
EXTT6=
EXTT7=
EXTT8=
EXTT9=
EXTT10=
PLAYORDER=
